<svg width="55" height="56" viewBox="0 0 55 56" fill="none" xmlns="http://www.w3.org/2000/svg">
<rect x="0.771484" y="0.848633" width="53.7273" height="53.7273" rx="26.8636" stroke="#828282"/>
<path d="M40.6655 33.1721C40.6655 37.9152 37.8379 40.7427 33.0949 40.7427H31.5443C30.8276 40.7427 30.2412 40.1564 30.2412 39.4397V31.9212C30.2412 31.5694 30.5279 31.2697 30.8797 31.2697L33.173 31.2306C33.3555 31.2176 33.5118 31.0873 33.5509 30.9049L34.007 28.4161C34.0461 28.1815 33.8636 27.96 33.6161 27.96L30.8406 27.9991C30.4758 27.9991 30.1891 27.7124 30.1761 27.3606L30.124 24.1682C30.124 23.9597 30.2933 23.7773 30.5148 23.7773L33.6421 23.7252C33.8636 23.7252 34.033 23.5558 34.033 23.3343L33.9809 20.207C33.9809 19.9854 33.8115 19.8161 33.59 19.8161L30.0718 19.8682C27.9088 19.9073 26.1888 21.6794 26.2279 23.8424L26.293 27.4258C26.3061 27.7906 26.0194 28.0773 25.6546 28.0903L24.0909 28.1164C23.8694 28.1164 23.7 28.2857 23.7 28.5073L23.7391 30.983C23.7391 31.2046 23.9085 31.3739 24.13 31.3739L25.6937 31.3479C26.0585 31.3479 26.3451 31.6346 26.3582 31.9864L26.4754 39.4137C26.4885 40.1434 25.9021 40.7427 25.1724 40.7427H22.1755C17.4324 40.7427 14.6049 37.9151 14.6049 33.1591V22.2527C14.6049 17.5097 17.4324 14.6821 22.1755 14.6821H33.0949C37.8379 14.6821 40.6655 17.5097 40.6655 22.2527V33.1721Z" fill="#828282"/>
</svg>
