<svg width="56" height="56" viewBox="0 0 56 56" fill="none" xmlns="http://www.w3.org/2000/svg">
<rect x="1.13501" y="0.848633" width="53.7273" height="53.7273" rx="26.8636" stroke="#828282"/>
<path d="M33.4585 14.6821H22.5391C17.7961 14.6821 14.9685 17.5097 14.9685 22.2527V33.1591C14.9685 37.9152 17.7961 40.7427 22.5391 40.7427H33.4455C38.1885 40.7427 41.0161 37.9152 41.0161 33.1721V22.2527C41.0291 17.5097 38.2015 14.6821 33.4585 14.6821ZM27.9988 32.7682C25.2103 32.7682 22.9431 30.5009 22.9431 27.7124C22.9431 24.9239 25.2103 22.6567 27.9988 22.6567C30.7873 22.6567 33.0546 24.9239 33.0546 27.7124C33.0546 30.5009 30.7873 32.7682 27.9988 32.7682ZM35.7127 21.0409C35.6476 21.1973 35.5564 21.3406 35.4391 21.4709C35.3088 21.5882 35.1655 21.6794 35.0091 21.7446C34.8527 21.8097 34.6834 21.8488 34.514 21.8488C34.1621 21.8488 33.8364 21.7185 33.5888 21.4709C33.4715 21.3406 33.3803 21.1973 33.3152 21.0409C33.25 20.8846 33.2109 20.7152 33.2109 20.5458C33.2109 20.3764 33.25 20.207 33.3152 20.0506C33.3803 19.8812 33.4715 19.7509 33.5888 19.6206C33.8885 19.3209 34.3446 19.1776 34.7615 19.2688C34.8527 19.2818 34.9309 19.3079 35.0091 19.347C35.0873 19.373 35.1655 19.4121 35.2437 19.4643C35.3088 19.5033 35.374 19.5685 35.4391 19.6206C35.5564 19.7509 35.6476 19.8812 35.7127 20.0506C35.7779 20.207 35.817 20.3764 35.817 20.5458C35.817 20.7152 35.7779 20.8846 35.7127 21.0409Z" fill="#828282"/>
</svg>
