<svg width="55" height="56" viewBox="0 0 55 56" fill="none" xmlns="http://www.w3.org/2000/svg">
<rect x="0.501465" y="0.848633" width="53.7245" height="53.7245" rx="26.8623" stroke="#828282"/>
<g clip-path="url(#clip0_1_876)">
<path d="M19.0721 15.0759C16.6733 15.0759 14.7288 17.0205 14.7288 19.4193V36.7926C14.7288 39.1914 16.6733 41.1359 19.0721 41.1359H36.4454C38.8442 41.1359 40.7888 39.1914 40.7888 36.7926V19.4193C40.7888 17.0205 38.8442 15.0759 36.4454 15.0759H19.0721ZM20.3664 20.6602H25.2914L28.7888 25.6301L33.0328 20.6602H34.584L29.4893 26.625L35.7716 35.5516H30.8478L26.7893 29.7856L21.8642 35.5516H20.313L26.0888 28.7906L20.3664 20.6602ZM22.7416 21.9012L31.4949 34.3107H33.3964L24.643 21.9012H22.7416Z" fill="#828282"/>
</g>
<defs>
<clipPath id="clip0_1_876">
<rect x="14.7288" y="15.0759" width="26.06" height="26.06" rx="6" fill="black"/>
</clipPath>
</defs>
</svg>
