<svg width="100%" height="198" viewBox="0 0 1280 198" fill="none" xmlns="http://www.w3.org/2000/svg">
    <g filter="url(#filter0_d_1_4926)">
        <path
            d="M-26.0734 190H-65V188.199C-65 188.199 -53.6464 186.398 -53.6464 172.291V18.0095C-53.6464 3.90206 -65 2.10111 -65 2.10111V0H-26.0734V2.10111C-26.0734 2.10111 -37.427 3.90206 -37.427 18.0095V72.6382H31.6215V18.0095C31.6215 3.90206 20.2679 2.10111 20.2679 2.10111V0H59.1945V2.10111C59.1945 2.10111 47.8409 3.90206 47.8409 18.0095V172.291C47.8409 186.398 59.1945 188.199 59.1945 188.199V190H20.2679V188.199C20.2679 188.199 31.6215 186.398 31.6215 172.291V75.94H-37.427V172.291C-37.427 186.398 -26.0734 188.199 -26.0734 188.199V190Z"
            fill="white" />
        <path
            d="M202.09 0V2.10111C195.603 2.10111 187.029 6.60348 182.395 16.5087L137.908 108.657V172.291C137.908 186.398 149.261 188.199 149.261 188.199V190H110.335V188.199C110.335 188.199 121.688 186.398 121.688 172.291V108.657L81.603 18.0095C75.347 3.90206 63.2982 2.10111 63.2982 2.10111V0H105.469L105.237 2.10111C105.237 2.10111 94.8103 3.90206 101.066 18.0095L138.139 101.754L179.151 16.5087C184.017 6.60348 180.078 2.10111 173.359 2.10111V0H202.09Z"
            fill="white" />
        <path
            d="M234.104 172.291C234.104 186.398 245.457 188.199 245.457 188.199V190H206.531V188.199C206.531 188.199 217.884 186.398 217.884 172.291V18.0095C217.884 3.90206 206.531 2.10111 206.531 2.10111V0H264.226C287.86 0 313.579 17.4092 313.579 54.9289C313.579 92.1485 261.909 120.663 234.104 122.765V172.291ZM234.104 3.30175V119.463C268.396 114.96 297.128 91.8483 297.128 54.9289C297.128 24.9131 279.518 3.30175 255.421 3.30175H234.104Z"
            fill="white" />
        <path
            d="M319.895 190V188.199C319.895 188.199 331.248 186.398 331.248 172.291V18.0095C331.248 3.90206 319.895 2.10111 319.895 2.10111V0H397.98L407.248 27.6145H398.443C390.333 11.1058 383.846 3.30175 373.651 3.30175H347.468V73.8389H366.004C376.199 73.8389 381.992 71.1374 386.626 54.9289H388.248V96.0506H386.626C381.992 80.1422 376.199 77.1406 366.004 77.1406H347.468V186.698H385.468C395.894 186.698 402.382 179.194 410.492 162.686H419.297L409.797 190H319.895Z"
            fill="white" />
        <path
            d="M531.256 175.592C534.268 186.998 544.927 188.199 544.927 188.199V190H507.854V188.199C507.854 188.199 517.817 186.998 515.037 175.592L507.622 145.877C501.829 122.765 493.025 111.058 473.098 117.662C465.22 120.664 458.037 122.464 451.781 122.765V172.291C451.781 186.398 463.134 188.199 463.134 188.199V190H424.208V188.199C424.208 188.199 435.561 186.398 435.561 172.291V18.0095C435.561 3.90206 424.208 2.10111 424.208 2.10111V0H481.903C505.537 0 531.256 17.4092 531.256 54.9289C531.256 78.3412 510.866 98.1517 489.086 110.158C503.451 109.558 516.195 115.861 519.902 131.169L531.256 175.592ZM451.781 3.30175V119.463C459.195 118.562 466.378 116.761 472.866 114.06C473.098 114.06 473.33 113.76 473.561 113.76C497.427 104.155 514.805 83.7441 514.805 54.9289C514.805 24.9131 497.195 3.30175 473.098 3.30175H451.781Z"
            fill="white" />
        <path
            d="M656.16 175.592C659.172 186.998 669.831 188.199 669.831 188.199V190H632.758V188.199C632.758 188.199 642.721 186.998 639.941 175.592L632.526 145.877C626.734 122.765 617.929 111.058 598.002 117.662C590.124 120.664 582.941 122.464 576.685 122.765V172.291C576.685 186.398 588.039 188.199 588.039 188.199V190H549.112V188.199C549.112 188.199 560.466 186.398 560.466 172.291V18.0095C560.466 3.90206 549.112 2.10111 549.112 2.10111V0H606.807C630.441 0 656.16 17.4092 656.16 54.9289C656.16 78.3412 635.77 98.1517 613.99 110.158C628.355 109.558 641.099 115.861 644.807 131.169L656.16 175.592ZM576.685 3.30175V119.463C584.1 118.562 591.282 116.761 597.77 114.06C598.002 114.06 598.234 113.76 598.465 113.76C622.331 104.155 639.709 83.7441 639.709 54.9289C639.709 24.9131 622.099 3.30175 598.002 3.30175H576.685Z"
            fill="white" />
        <path
            d="M674.016 190V188.199C674.016 188.199 685.37 186.398 685.37 172.291V18.0095C685.37 3.90206 674.016 2.10111 674.016 2.10111V0H752.101L761.369 27.6145H752.564C744.455 11.1058 737.967 3.30175 727.772 3.30175H701.589V73.8389H720.126C730.321 73.8389 736.113 71.1374 740.747 54.9289H742.369V96.0506H740.747C736.113 80.1422 730.321 77.1406 720.126 77.1406H701.589V186.698H739.589C750.016 186.698 756.503 179.194 764.613 162.686H773.418L763.918 190H674.016Z"
            fill="white" />
        <path
            d="M805.24 188.199V190H776.971V188.199C783.691 188.199 790.874 183.397 793.423 173.491L830.032 27.6145L823.081 0H840.227L883.556 172.291C887.032 186.398 898.849 188.199 898.849 188.199V190H858.995V188.199C858.995 188.199 869.886 186.398 866.41 172.291L858.069 139.273H804.776L796.203 173.491C793.654 183.397 798.752 188.199 805.24 188.199ZM857.142 135.972L831.422 32.7172L805.471 135.972H857.142Z"
            fill="white" />
        <path
            d="M903.686 190V188.199C903.686 188.199 915.039 186.398 915.039 172.291V18.0095C915.039 3.90206 903.686 2.10111 903.686 2.10111V0H942.612V2.10111C942.612 2.10111 931.259 3.90206 931.259 18.0095V186.698H969.259C979.685 186.698 986.173 179.194 994.283 162.686H1003.09L993.588 190H903.686Z"
            fill="white" />
        <path
            d="M1047.6 190H1008.68V188.199C1008.68 188.199 1020.03 186.398 1020.03 172.291V18.0095C1020.03 3.90206 1008.68 2.10111 1008.68 2.10111V0H1047.6V2.10111C1047.6 2.10111 1036.25 3.90206 1036.25 18.0095V172.291C1036.25 186.398 1047.6 188.199 1047.6 188.199V190Z"
            fill="white" />
        <path
            d="M1121.85 95.1501C1137.61 112.559 1152.44 126.967 1152.67 142.875C1153.13 167.188 1135.29 190 1104.47 190C1066.94 190 1052.8 158.183 1052.8 158.183L1077.59 132.97C1082.46 195.703 1136.45 194.803 1137.14 162.385C1137.61 142.875 1112.35 116.761 1090.57 95.1501C1074.12 78.9416 1060.45 63.3333 1060.22 47.425C1059.75 23.1122 1073.65 0 1104.47 0C1136.22 0 1148.73 22.2117 1141.31 50.1264L1113.97 62.733C1149.42 -15.9084 1073.89 -1.20062 1073.19 25.2133C1072.96 44.1232 1098.22 68.7362 1121.85 95.1501Z"
            fill="white" />
        <path
            d="M1179.95 190H1151.68V188.199C1158.4 188.199 1165.59 183.397 1168.13 173.491L1203.35 32.7172L1195.24 0H1212.39L1248.54 144.376L1276.57 32.7172L1268.46 0H1285.61L1328.71 172.291C1332.18 186.398 1344 188.199 1344 188.199V190H1304.15V188.199C1304.15 188.199 1315.04 186.398 1311.56 172.291L1277.96 38.1201L1249.93 149.779L1255.49 172.291C1259.2 186.398 1270.78 188.199 1270.78 188.199V190H1231.16V188.199C1231.16 188.199 1242.05 186.398 1238.34 172.291L1204.74 38.1201L1170.92 173.491C1168.37 183.397 1173.46 188.199 1179.95 188.199V190Z"
            fill="white" />
    </g>
    <defs>
        <filter id="filter0_d_1_4926" x="-69" y="0" width="1417" height="198"
            filterUnits="userSpaceOnUse" color-interpolation-filters="sRGB">
            <feFlood flood-opacity="0" result="BackgroundImageFix" />
            <feColorMatrix in="SourceAlpha" type="matrix"
                values="0 0 0 0 0 0 0 0 0 0 0 0 0 0 0 0 0 0 127 0" result="hardAlpha" />
            <feOffset dy="4" />
            <feGaussianBlur stdDeviation="2" />
            <feComposite in2="hardAlpha" operator="out" />
            <feColorMatrix type="matrix" values="0 0 0 0 0 0 0 0 0 0 0 0 0 0 0 0 0 0 0.25 0" />
            <feBlend mode="normal" in2="BackgroundImageFix" result="effect1_dropShadow_1_4926" />
            <feBlend mode="normal" in="SourceGraphic" in2="effect1_dropShadow_1_4926" result="shape" />
        </filter>
    </defs>
</svg>